<?xml version="1.0" encoding="UTF-8"?>
<svg viewBox="0 0 64 64" version="1.1" xmlns="http://www.w3.org/2000/svg" xmlns:xlink="http://www.w3.org/1999/xlink">
    <g>
        <polygon fill="#44A3DD" points="0 0 64 0 64 64 0 64"></polygon>
        <path d="M12.5002858,23 L25.6761004,23 C26.6656866,23 27.5759827,23.5413597 28.0484682,24.4108643 L39.7799231,46 L24.081859,46 C23.0922729,46 22.1819767,45.4586403 21.7094912,44.5891357 L11.1823037,25.2161865 C10.7867648,24.4882851 11.0561979,23.5775568 11.7840993,23.1820179 C12.0039143,23.0625713 12.2501137,23 12.5002858,23 Z" fill="#BEE5F7"></path>
        <path d="M51.5910069,23 C51.8411791,23 52.0873785,23.0625713 52.3071934,23.1820179 C53.0130373,23.5655707 53.2877777,24.4335625 52.943121,25.1495294 L52.9089891,25.2161865 L42.3818016,44.5891357 C41.9245575,45.4305918 41.0572931,45.9647321 40.1049406,45.9983172 L40.0094337,46 L24.5560452,46 L24.081859,46 L23.9861474,45.9983099 C23.4883845,45.9807184 23.0138729,45.8263853 22.6090091,45.5629027 C22.8118648,45.6793724 23.0414562,45.7544235 23.2863079,45.7765197 C23.3123502,45.7788699 23.522255,45.7983421 23.7558113,45.7356356 C23.8545852,45.7091163 24.2192366,45.6239743 24.6056229,45.2625823 C24.7211639,45.1545153 24.8827176,44.9224567 25.0902842,44.5664065 L36.0428245,24.4108643 C36.5000686,23.5694082 37.367333,23.0352679 38.3196855,23.0016828 L38.4151924,23 L51.5910069,23 Z" fill="#FFFFFF"></path>
    </g>
</svg>